<?xml version="1.0" standalone="no"?>
<!DOCTYPE svg PUBLIC "-//W3C//DTD SVG 20010904//EN"
 "http://www.w3.org/TR/2001/REC-SVG-20010904/DTD/svg10.dtd">
<svg version="1.0" xmlns="http://www.w3.org/2000/svg"
 width="390.000000pt" height="844.000000pt" viewBox="0 0 390.000000 844.000000"
 preserveAspectRatio="xMidYMid meet">

<g transform="translate(0.000000,844.000000) scale(0.100000,-0.100000)"
fill="#000000" stroke="none">
<path d="M2444 8415 c-46 -70 -78 -178 -98 -328 l-5 -38 39 40 c54 55 189 119
290 137 201 35 349 30 400 -13 66 -55 29 -70 -225 -88 -105 -7 -204 -16 -220
-20 -96 -21 -238 -79 -267 -108 -22 -22 -33 -256 -19 -403 8 -77 8 -149 1
-235 -15 -178 -18 -190 -51 -203 -16 -6 -28 -15 -26 -20 2 -5 32 -19 67 -31
36 -12 79 -28 95 -37 17 -8 41 -18 55 -21 14 -4 49 -22 79 -42 29 -20 74 -44
100 -54 53 -22 213 -73 215 -69 1 2 27 41 58 88 62 94 77 128 149 339 27 80
62 170 78 200 15 31 31 69 35 84 4 17 16 31 33 38 43 16 56 -7 61 -104 4 -74
0 -99 -31 -208 -35 -122 -115 -334 -141 -374 -14 -21 -102 -69 -150 -81 -57
-14 0 -24 139 -24 154 0 372 35 405 65 27 24 68 123 85 203 8 40 24 143 36
229 24 177 22 346 -5 443 -32 112 -14 206 34 180 34 -18 81 -85 95 -135 7 -27
17 -124 22 -215 l8 -165 19 60 c11 33 19 63 18 68 -1 4 4 7 12 7 22 0 29 -71
16 -151 -7 -39 -15 -68 -18 -65 -5 6 -23 -20 -42 -64 -11 -24 -12 -24 -26 -6
-13 19 -14 18 -14 -10 0 -16 -5 -70 -9 -121 -10 -99 -20 -123 -85 -190 -22
-24 -36 -43 -31 -43 21 0 202 63 238 83 l37 21 0 703 0 703 -47 0 c-43 0 -52
-4 -95 -47 -55 -54 -66 -44 -13 11 l35 36 -660 0 -660 0 -16 -25z m176 -6 c0
-5 -9 -9 -20 -9 -22 0 -27 16 -7 23 15 5 27 -1 27 -14z m1074 -74 c-4 -8 -10
-15 -14 -15 -7 0 -123 -98 -224 -189 -23 -21 -27 -22 -18 -6 9 18 152 155 212
204 30 24 52 27 44 6z m-164 -60 c-7 -9 -15 -13 -17 -11 -7 7 7 26 19 26 6 0
6 -6 -2 -15z m-121 -182 c0 -10 -217 -197 -232 -201 -13 -4 42 50 148 145 67
60 86 72 84 56z m-89 -28 c-34 -36 -140 -118 -140 -107 0 9 81 87 120 114 36
26 47 22 20 -7z m-171 -159 c-52 -46 -102 -86 -110 -86 -17 0 24 52 56 71 25
16 68 28 54 15z m-729 -361 c0 -8 -4 -15 -10 -15 -5 0 -7 7 -4 15 4 8 8 15 10
15 2 0 4 -7 4 -15z m917 -101 c-5 -68 -13 -100 -37 -151 -17 -36 -34 -63 -36
-60 -5 5 29 196 47 260 5 20 15 37 21 37 8 0 9 -26 5 -86z m-918 -26 c-14 -62
-36 -64 -37 -3 -1 32 3 47 16 54 26 15 32 1 21 -51z"/>
<path d="M320 2343 c-43 -6 -69 -25 -109 -78 -51 -67 -72 -110 -127 -257 -93
-249 -84 -128 -84 -1124 l0 -884 1950 0 1950 0 0 750 0 750 -49 0 c-28 0 -53
5 -56 10 -4 6 -36 10 -71 9 -36 -1 -62 -5 -57 -8 4 -3 9 -14 10 -24 1 -16 -5
-18 -50 -14 l-52 5 24 -19 c13 -10 30 -19 38 -19 8 0 13 -6 11 -12 -3 -7 10
-42 28 -78 17 -36 48 -113 68 -171 50 -148 47 -226 -11 -264 -41 -27 -71 -1
-175 150 -62 90 -177 234 -216 268 -15 14 -27 17 -44 11 -13 -4 -27 -7 -32 -5
-5 1 -16 -1 -25 -5 -9 -4 -24 -8 -35 -9 -10 -1 -23 -9 -28 -18 -5 -10 -16 -17
-23 -17 -8 0 -15 -5 -15 -10 0 -6 -6 -10 -12 -8 -15 3 -108 -31 -123 -44 -6
-6 4 -21 28 -41 34 -29 37 -37 39 -87 2 -77 -11 -160 -26 -160 -11 0 -94 -55
-106 -71 -3 -3 -10 -8 -17 -10 -6 -2 -22 -19 -35 -38 -13 -19 -30 -38 -38 -42
-70 -36 -78 -37 -315 -36 -129 1 -235 5 -235 9 0 5 -9 8 -20 8 -11 0 -20 -4
-20 -9 0 -14 -30 -22 -49 -12 -10 6 -23 6 -31 1 -9 -5 -19 -5 -27 2 -7 6 -29
7 -52 3 -25 -4 -41 -2 -46 5 -4 7 -11 8 -18 1 -13 -10 -207 -9 -225 3 -6 3
-20 1 -32 -6 -16 -10 -24 -10 -40 -1 -12 8 -21 9 -25 3 -9 -14 -109 -12 -123
2 -9 9 -15 9 -24 0 -7 -7 -20 -12 -29 -12 -10 0 -20 -6 -22 -12 -4 -9 -8 -10
-14 -2 -4 6 -23 10 -42 8 -19 -1 -64 3 -100 10 l-66 12 0 60 c0 32 3 64 7 70
16 23 78 316 88 416 11 114 33 209 82 357 33 103 54 131 96 132 25 0 25 1 8
12 -124 78 -252 170 -301 216 -73 69 -108 94 -183 130 -31 15 -73 37 -92 49
-25 16 -36 18 -39 9 -2 -6 -42 -50 -90 -97 -67 -67 -103 -114 -167 -220 -45
-74 -91 -153 -102 -175 -12 -22 -39 -62 -61 -90 -22 -27 -53 -70 -68 -95 -32
-52 -40 -60 -71 -60 -40 0 -47 37 -28 136 10 47 15 88 13 91 -3 2 -8 -9 -12
-25 -3 -16 -17 -40 -31 -52 l-24 -23 0 30 c0 31 36 137 67 197 9 17 33 49 55
71 36 37 38 38 29 12 -6 -15 -19 -46 -30 -70 -29 -64 -51 -119 -51 -126 0 -3
30 50 66 119 71 136 197 331 237 369 28 25 118 51 182 51 34 0 37 2 25 14 -17
16 -209 63 -290 71 -76 7 -260 12 -290 8z m-20 -470 c0 -5 -10 -19 -21 -33
l-20 -25 16 33 c15 30 25 41 25 25z m1090 -349 c-4 -18 -5 -35 -3 -38 3 -3 -6
-11 -21 -17 -35 -16 -40 -8 -25 38 26 73 65 88 49 17z m-43 -138 c-13 -13 -16
-13 -20 -1 -4 8 1 15 11 18 24 5 27 0 9 -17z m-803 -191 c-22 -18 -60 -35 -77
-35 -7 0 11 13 38 29 51 30 74 33 39 6z m-204 -60 c0 -2 -13 -11 -30 -20 -38
-19 -40 -11 -2 9 31 17 32 18 32 11z m-175 -105 c-3 -5 -12 -10 -18 -10 -7 0
-6 4 3 10 19 12 23 12 15 0z"/>
<path d="M32 2323 c-32 -4 -32 -5 -32 -61 l0 -56 38 36 c20 19 55 47 77 62
l40 26 -45 -2 c-25 0 -60 -3 -78 -5z"/>
</g>
</svg>
