<svg xmlns="http://www.w3.org/2000/svg" version="1.1" xmlns:xlink="http://www.w3.org/1999/xlink" xmlns:svgjs="http://svgjs.com/svgjs" width="512" height="512" x="0" y="0" viewBox="0 0 8.467 8.467" style="enable-background:new 0 0 512 512" xml:space="preserve" class=""><g><path d="M4.75 1.322a.53.53 0 0 0-.361.157.53.53 0 0 0 0 .748l2.006 2.007L4.389 6.24a.53.53 0 0 0 0 .748.53.53 0 0 0 .748 0l2.38-2.38a.53.53 0 0 0 0-.749l-2.38-2.38a.53.53 0 0 0-.387-.157z" fill="#ffffff" opacity="1" data-original="#000000" class=""></path><path d="M1.31 1.322a.53.53 0 0 0-.36.157.53.53 0 0 0 0 .748l2.007 2.007-.95.948a.53.53 0 0 0 0 .748.53.53 0 0 0 .749 0l1.322-1.323a.53.53 0 0 0 0-.748l-2.38-2.38a.53.53 0 0 0-.387-.157zM1.322 6.086a.53.53 0 0 0-.529.53.53.53 0 0 0 .53.529.53.53 0 0 0 .529-.53.53.53 0 0 0-.53-.53z" fill="#ffffff" opacity="1" data-original="#000000" class=""></path><path d="M4.75 1.322a.53.53 0 0 0-.361.157.53.53 0 0 0 0 .748l2.006 2.007L4.389 6.24a.53.53 0 0 0 0 .748.53.53 0 0 0 .748 0l2.38-2.38a.53.53 0 0 0 0-.749l-2.38-2.38a.53.53 0 0 0-.387-.157z" fill="#ffffff" opacity="1" data-original="#000000" class=""></path></g></svg>