<svg xmlns="http://www.w3.org/2000/svg" version="1.1" xmlns:xlink="http://www.w3.org/1999/xlink" xmlns:svgjs="http://svgjs.com/svgjs" width="512" height="512" x="0" y="0" viewBox="0 0 512.805 512.805" style="enable-background:new 0 0 512 512" xml:space="preserve" class=""><g><path d="M256.402 52.436a17.018 17.018 0 0 0-12.628 5.629c-11.373 12.643-34.115 38.585-58.642 70.273a7.5 7.5 0 1 0 11.861 9.18c20.462-26.436 39.664-48.822 51.908-62.667v383.591c-78.739-3.92-141.592-69.209-141.592-148.903 0-32.243 24.427-82.949 70.64-146.636a7.5 7.5 0 0 0-1.666-10.475 7.499 7.499 0 0 0-10.475 1.666c-48.771 67.212-73.499 119.511-73.499 155.445 0 90.48 73.611 164.091 164.092 164.091 60.727 0 116.23-33.316 144.851-86.946a7.501 7.501 0 0 0-13.234-7.063c-24.823 46.516-71.903 76.193-124.116 78.8v-32.706L382.89 306.727a7.5 7.5 0 0 0-10.607-10.606L263.902 404.503v-53.796l96.879-96.879a7.5 7.5 0 0 0-10.607-10.606l-86.271 86.271v-53.796l74.474-74.474a7.5 7.5 0 0 0-10.607-10.606l-63.866 63.866v-53.796l35.488-35.488a7.5 7.5 0 0 0-10.607-10.606l-24.881 24.881v-45.595l14.308-14.308a7.5 7.5 0 0 0-10.607-10.606l-3.7 3.7v-37.81c17.297 19.564 50.027 57.933 79.615 100.194 40.546 57.91 61.977 104.417 61.977 134.491 0 13.44-1.798 26.784-5.343 39.661a7.5 7.5 0 0 0 14.463 3.982 164.472 164.472 0 0 0 5.88-43.642c0-77.116-115.933-211.979-151.465-251.476a17.024 17.024 0 0 0-12.63-5.629z" fill="#ffffff" opacity="1" data-original="#000000" class=""></path><path d="M178.465 249.221c-15.451-5.021-33.003 7.801-39.96 29.197-3.142 9.665-3.586 19.674-1.251 28.185 2.604 9.488 8.58 16.388 16.398 18.929a21.855 21.855 0 0 0 6.78 1.063c5.93 0 12.085-2.309 17.615-6.729 6.895-5.51 12.421-13.867 15.563-23.531 3.143-9.665 3.587-19.674 1.252-28.185-2.601-9.487-8.579-16.387-16.397-18.929zm.881 42.476c-2.213 6.809-6.1 12.806-10.663 16.453-2.158 1.725-6.381 4.422-10.393 3.118-4.015-1.305-5.84-5.969-6.571-8.633-1.545-5.634-1.162-12.77 1.052-19.578 4.081-12.552 12.624-19.901 18.884-19.901.762 0 1.49.109 2.172.331 4.016 1.306 5.841 5.97 6.571 8.633 1.545 5.633 1.162 12.769-1.052 19.577zM216.198 212.494c0-13.274-10.799-24.073-24.073-24.073-13.273 0-24.072 10.799-24.072 24.073s10.799 24.073 24.072 24.073c13.274-.001 24.073-10.799 24.073-24.073zm-24.073 9.072c-5.003 0-9.072-4.07-9.072-9.073s4.069-9.073 9.072-9.073 9.073 4.07 9.073 9.073-4.07 9.073-9.073 9.073zM486.391 33.522c-11.959 0-22.082 7.992-25.323 18.914h-70.436a7.5 7.5 0 0 0-6.297 3.426l-35.154 54.332a7.5 7.5 0 1 0 12.594 8.148l32.938-50.906h66.356c3.241 10.922 13.364 18.914 25.323 18.914 14.564 0 26.414-11.849 26.414-26.414s-11.851-26.414-26.415-26.414zm0 37.829c-6.294 0-11.414-5.12-11.414-11.414s5.12-11.414 11.414-11.414 11.414 5.12 11.414 11.414-5.12 11.414-11.414 11.414zM114.106 417.423a7.501 7.501 0 0 0-10.371 2.223l-16.643 25.722H51.737c-3.241-10.922-13.364-18.914-25.323-18.914C11.85 426.454 0 438.303 0 452.868s11.85 26.414 26.414 26.414c11.959 0 22.082-7.992 25.323-18.914h39.436a7.5 7.5 0 0 0 6.297-3.426l18.859-29.148a7.5 7.5 0 0 0-2.223-10.371zm-87.692 46.859c-6.294 0-11.414-5.12-11.414-11.414s5.12-11.414 11.414-11.414 11.414 5.12 11.414 11.414-5.12 11.414-11.414 11.414z" fill="#ffffff" opacity="1" data-original="#000000" class=""></path></g></svg>