<?xml version="1.0" encoding="UTF-8" standalone="no"?>
<!-- Created with Inkscape (http://www.inkscape.org/) -->

<svg
   version="1.1"
   id="svg309"
   xml:space="preserve"
   width="682.66669"
   height="682.66669"
   viewBox="0 0 682.66669 682.66669"
   xmlns="http://www.w3.org/2000/svg"
   xmlns:svg="http://www.w3.org/2000/svg"><defs
     id="defs313"><clipPath
       clipPathUnits="userSpaceOnUse"
       id="clipPath323"><path
         d="M 0,512 H 512 V 0 H 0 Z"
         id="path321" /></clipPath></defs><g
     id="g315"
     transform="matrix(1.3333333,0,0,-1.3333333,0,682.66667)"><g
       id="g317"><g
         id="g319"
         clip-path="url(#clipPath323)"><g
           id="g325"
           transform="translate(426.4111,426.4126)"><path
             d="M 0,0 C 94.054,-94.053 94.054,-246.772 0,-340.825"
             style="fill:none;stroke:#000000;stroke-width:30;stroke-linecap:round;stroke-linejoin:round;stroke-miterlimit:10;stroke-dasharray:none;stroke-opacity:1"
             id="path327" /></g><g
           id="g329"
           transform="translate(85.5889,85.5874)"><path
             d="M 0,0 C -94.054,94.053 -94.054,246.772 0,340.825"
             style="fill:none;stroke:#000000;stroke-width:30;stroke-linecap:round;stroke-linejoin:round;stroke-miterlimit:10;stroke-dasharray:none;stroke-opacity:1"
             id="path331" /></g><g
           id="g333"
           transform="translate(380.9907,380.9937)"><path
             d="M 0,0 C 68.99,-68.986 68.99,-181.001 0,-249.987"
             style="fill:none;stroke:#000000;stroke-width:30;stroke-linecap:round;stroke-linejoin:round;stroke-miterlimit:10;stroke-dasharray:none;stroke-opacity:1"
             id="path335" /></g><g
           id="g337"
           transform="translate(131.0093,131.0063)"><path
             d="M 0,0 C -68.99,68.986 -68.99,181.001 0,249.987"
             style="fill:none;stroke:#000000;stroke-width:30;stroke-linecap:round;stroke-linejoin:round;stroke-miterlimit:10;stroke-dasharray:none;stroke-opacity:1"
             id="path339" /></g><g
           id="g341"
           transform="translate(335.5381,335.541)"><path
             d="M 0,0 C 43.902,-43.899 43.902,-115.183 0,-159.082"
             style="fill:none;stroke:#000000;stroke-width:30;stroke-linecap:round;stroke-linejoin:round;stroke-miterlimit:10;stroke-dasharray:none;stroke-opacity:1"
             id="path343" /></g><g
           id="g345"
           transform="translate(176.4619,176.459)"><path
             d="M 0,0 C -43.902,43.899 -43.902,115.183 0,159.082"
             style="fill:none;stroke:#000000;stroke-width:30;stroke-linecap:round;stroke-linejoin:round;stroke-miterlimit:10;stroke-dasharray:none;stroke-opacity:1"
             id="path347" /></g><g
           id="g349"
           transform="translate(256,304.2002)"><path
             d="m 0,0 c 26.598,0 48.2,-21.598 48.2,-48.2 0,-26.603 -21.602,-48.2 -48.2,-48.2 -26.598,0 -48.2,21.597 -48.2,48.2 C -48.2,-21.598 -26.598,0 0,0 Z"
             style="fill:none;stroke:#000000;stroke-width:30;stroke-linecap:round;stroke-linejoin:round;stroke-miterlimit:10;stroke-dasharray:none;stroke-opacity:1"
             id="path351" /></g></g></g></g></svg>
